<?xml version="1.0" encoding="UTF-8"?>
<svg xmlns="http://www.w3.org/2000/svg" viewBox="0 0 512 512" width="512" height="512"><g id="Outline"><path d="M488.2,409.63l-15.921,1.592,5.945,59.448L432,436V176h16.76l21.7,217.054,15.921-1.592L463.96,167.2A8,8,0,0,0,456,160H368V96A79.96,79.96,0,0,0,256,22.7,79.96,79.96,0,0,0,144,96v64H56a8,8,0,0,0-7.96,7.2l-5.335,53.347,15.921,1.592L63.24,176H104v75.056L76.422,264.845A8,8,0,0,0,72,272v32H88V276.944l16-8V288h16V268.944l16,8V360H88V320H72v48a8,8,0,0,0,8,8h64a8,8,0,0,0,8-8V272a8,8,0,0,0-4.422-7.155L120,251.056V176h24v18.165a16,16,0,1,0,16,0V176H288v18.165a16,16,0,1,0,16,0V176h79.16l-30.4,304H32.84l23.8-237.957-15.921-1.592L16.04,487.2A8,8,0,0,0,24,496H488a8,8,0,0,0,7.96-8.8ZM208,160H160V96a63.953,63.953,0,0,1,78.054-62.426A79.871,79.871,0,0,0,208,96Zm80,0H224V96a64.023,64.023,0,0,1,32-55.39A64.023,64.023,0,0,1,288,96Zm64,0H304V96a79.871,79.871,0,0,0-30.054-62.426A63.953,63.953,0,0,1,352,96Zm47.24,16H416V436l-46.227,34.67ZM384,480l40-30,40,30Z"/></g></svg>
