<svg id="Capa_1" enable-background="new 0 0 512 512" height="512" viewBox="0 0 512 512" width="512" xmlns="http://www.w3.org/2000/svg"><g><path d="m483.132 11.508c-7.607-7.401-17.54-11.46-28.128-11.497-.07-.002-.137-.01-.207-.01h-265.063c-22.406 0-40.635 18.229-40.635 40.634v22.275c0 4.143 3.357 7.5 7.5 7.5s7.5-3.357 7.5-7.5v-22.276c0-14.135 11.5-25.634 25.635-25.634h233.879c-5.885 7.188-9.45 16.386-9.45 26.323l.005 430.043c0 14.135-11.5 25.634-25.635 25.634s-25.633-11.499-25.633-25.634v-33.132c.001-6.429-2.503-12.473-7.049-17.019s-10.589-7.049-17.018-7.049h-174.732v-59.551h18.133v9.067c0 8.703 7.081 15.783 15.784 15.783h115.966c8.703 0 15.783-7.08 15.783-15.783v-16.566c0-8.703-7.08-15.783-15.783-15.783h-17.371c.008-.261.02-.522.02-.785v-17.349h17.351c8.703 0 15.783-7.08 15.783-15.783v-16.566c0-8.703-7.08-15.783-15.783-15.783h-17.351v-18.133h17.351c8.703 0 15.783-7.08 15.783-15.783v-16.566c0-8.703-7.08-15.783-15.783-15.783h-17.351v-.783-16.566c0-.263-.012-.523-.02-.784h17.371c8.703 0 15.783-7.08 15.783-15.783v-16.566c0-8.703-7.08-15.783-15.783-15.783h-115.966c-8.703 0-15.784 7.08-15.784 15.783v9.066h-18.134l-.001-64.475c0-4.143-3.358-7.5-7.5-7.5-4.143 0-7.5 3.358-7.5 7.5l.001 64.475h-60.331c-4.143 0-7.5 3.357-7.5 7.5s3.357 7.5 7.5 7.5h183.797c5 0 9.067 4.067 9.067 9.067v9.066h-250.065v-9.066c0-5 4.067-9.067 9.067-9.067h18.133c4.143 0 7.5-3.357 7.5-7.5s-3.357-7.5-7.5-7.5h-18.133c-13.271 0-24.067 10.797-24.067 24.067v149.098c0 13.271 10.797 24.067 24.067 24.067l108.466-.001v59.551h-42.199c-13.271 0-24.067 10.796-24.067 24.066v33.133c0 22.405 18.229 40.634 40.635 40.634h265.064c22.406 0 40.635-18.228 40.635-40.634l-.005-373.533h42.202c13.271 0 24.066-10.796 24.066-24.066v-33.134c0-11.065-4.368-21.408-12.3-29.126zm-169.148 334.825c.432 0 .783.352.783.783v16.566c0 .432-.352.783-.783.783h-115.966c-.433 0-.784-.352-.784-.783v-9.067h75.332c7.234 0 13.729-3.213 18.144-8.282zm0-66.267c.432 0 .783.352.783.783v16.566c0 .432-.352.783-.783.783h-17.351v-18.133h17.351zm0-66.265c.432 0 .783.352.783.783v16.566c0 .432-.352.783-.783.783h-17.351v-.783-17.35h17.351zm-41.418-56.417h-75.332v-9.066c0-.432.352-.783.784-.783h115.966c.432 0 .783.352.783.783v16.566c0 .432-.352.783-.783.783h-23.273c-4.416-5.07-10.91-8.283-18.145-8.283zm9.067 48.134v18.133h-250.065v-18.133zm-250.065 125.031v-91.899h250.065v91.898c0 5-4.067 9.067-9.067 9.067l-231.931.001c-5 0-9.067-4.067-9.067-9.067zm91.901 166.451c-14.135 0-25.635-11.499-25.635-25.634v-33.133c0-4.999 4.067-9.066 9.067-9.066h231.932c2.422 0 4.699.943 6.411 2.655 1.713 1.713 2.655 3.989 2.655 6.411v33.133c0 9.711 3.424 18.637 9.128 25.634zm356.963-423.233c0 4.999-4.067 9.066-9.066 9.066h-42.202v-41.51c0-14.133 11.174-25.937 24.909-26.313 6.977-.194 13.597 2.382 18.599 7.249 5.005 4.869 7.761 11.395 7.761 18.375v33.133z"/><path d="m330.833 97.835c8.547 0 15.5-6.953 15.5-15.5v-17.134c0-8.547-6.953-15.5-15.5-15.5h-83.4c-8.547 0-15.5 6.953-15.5 15.5v17.134c0 8.547 6.953 15.5 15.5 15.5zm-83.9-15.5v-17.134c0-.275.225-.5.5-.5h83.4c.275 0 .5.225.5.5v17.134c0 .275-.225.5-.5.5h-83.4c-.275 0-.5-.225-.5-.5z"/><path d="m214.301 321.482h33.699c8.547 0 15.5-6.953 15.5-15.5v-33.699c0-8.547-6.953-15.5-15.5-15.5h-33.699c-8.547 0-15.5 6.953-15.5 15.5v33.699c0 8.547 6.953 15.5 15.5 15.5zm-.5-49.199c0-.275.225-.5.5-.5h33.699c.275 0 .5.225.5.5v33.699c0 .275-.225.5-.5.5h-33.699c-.275 0-.5-.225-.5-.5z"/><path d="m73.768 265.066c-13.27 0-24.066 10.796-24.066 24.066s10.796 24.066 24.066 24.066 24.066-10.796 24.066-24.066c.001-13.27-10.795-24.066-24.066-24.066zm0 33.133c-4.999 0-9.066-4.067-9.066-9.066s4.067-9.066 9.066-9.066 9.066 4.067 9.066 9.066c.001 4.999-4.067 9.066-9.066 9.066z"/><path d="m363.4 180.667h17.133c8.547 0 15.5-6.953 15.5-15.5v-17.133c0-8.547-6.953-15.5-15.5-15.5h-17.133c-8.547 0-15.5 6.953-15.5 15.5v17.133c0 8.547 6.953 15.5 15.5 15.5zm-.5-32.633c0-.275.225-.5.5-.5h17.133c.275 0 .5.225.5.5v17.133c0 .275-.225.5-.5.5h-17.133c-.275 0-.5-.225-.5-.5z"/><path d="m347.9 231.434c0 8.547 6.953 15.5 15.5 15.5h17.133c8.547 0 15.5-6.953 15.5-15.5v-17.133c0-8.547-6.953-15.5-15.5-15.5h-17.133c-8.547 0-15.5 6.953-15.5 15.5zm15-17.133c0-.275.225-.5.5-.5h17.133c.275 0 .5.225.5.5v17.133c0 .275-.225.5-.5.5h-17.133c-.275 0-.5-.225-.5-.5z"/><path d="m347.9 297.699c0 8.547 6.953 15.5 15.5 15.5h17.133c8.547 0 15.5-6.953 15.5-15.5v-17.133c0-8.547-6.953-15.5-15.5-15.5h-17.133c-8.547 0-15.5 6.953-15.5 15.5zm15-17.133c0-.275.225-.5.5-.5h17.133c.275 0 .5.225.5.5v17.133c0 .275-.225.5-.5.5h-17.133c-.275 0-.5-.225-.5-.5z"/><path d="m347.9 363.966c0 8.547 6.953 15.5 15.5 15.5h17.133c8.547 0 15.5-6.953 15.5-15.5v-17.133c0-8.547-6.953-15.5-15.5-15.5h-17.133c-8.547 0-15.5 6.953-15.5 15.5zm15-17.133c0-.275.225-.5.5-.5h17.133c.275 0 .5.225.5.5v17.133c0 .275-.225.5-.5.5h-17.133c-.275 0-.5-.225-.5-.5z"/></g></svg>