<svg id="Capa_1" enable-background="new 0 0 512 512" height="512" viewBox="0 0 512 512" width="512" xmlns="http://www.w3.org/2000/svg"><g><path d="m280.571 444.5-79.143 30-1.819 7.276c-3.339 13.355-15.338 22.724-29.104 22.724h140.989z" fill="#e5f9ff"/><path d="m312.39 481.776-9.319-37.276-47.071-30-47.071 30-7.5 30h79.143l1.819 7.276c3.339 13.355 15.338 22.724 29.104 22.724h30c-13.766 0-25.766-9.369-29.105-22.724z" fill="#bdf0ff"/><path d="m444.5 444.5h30c16.5 0 30-13.5 30-30v-30l-60-90.847z" fill="#bdf0ff"/><path d="m7.5 384.5v30c0 16.5 13.5 30 30 30h407c16.5 0 30-13.5 30-30v-180.847z" fill="#e5f9ff"/><path d="m474.5 86.75h-30v266.903l30 30.847h30v-267.75c0-16.5-13.5-30-30-30z" fill="#2d4a7a"/><path d="m474.5 354.5-218.5-118.875 218.5-118.875c0-16.5-13.5-30-30-30h-407c-16.5 0-30 13.5-30 30v267.75h467z" fill="#415ba3"/><path d="m474.5 116.773-29.994-.023c0 .006-188.506 118.875-188.506 118.875s188.502 118.872 188.5 118.875h29.999c.001 0-.002-237.722.001-237.727z" fill="#8de5ff"/><path d="m444.5 116.75h-406.912c-.024.012-.045 237.745-.088 237.75h406.99c.005 0-.032-237.745.01-237.75z" fill="#bdf0ff"/><path d="m356.256 86.75-100.256 237.75-137.26-79.25v-158.5z" fill="#ff9457"/><path d="m393.26 86.75v158.5l-29.995 17.32-107.265-175.82z" fill="#ff6145"/><path d="m363.265 104.071v89.217l-30 34.641h30v34.641l-107.265 61.93v-237.75z" fill="#ff7e4f"/><path d="m363.265 193.288-30 17.321-30 34.641h30l30-17.321z" fill="#e5f9ff"/><path d="m286 237.897v34.641l47.265-27.288v-34.641z" fill="#fff"/><path d="m324.63 126.381h-118.758l-18.502-79.262 68.63-39.619 137.26 79.25z" fill="#ff9457"/><path d="m324.63 126.381-68.63 39.619-137.26-79.25 68.63-39.631z" fill="#ffae6b"/><path d="m474.5 79.25h-79.226l-135.524-78.245c-2.32-1.34-5.18-1.34-7.5 0l-135.524 78.245h-79.226c-20.711 0-37.5 16.789-37.5 37.5v297.75c0 20.711 16.789 37.5 37.5 37.5h161.823l-6.99 27.957c-2.504 10.016-11.504 17.043-21.828 17.043h-62.005c-4.142 0-7.5 3.358-7.5 7.5s3.358 7.5 7.5 7.5h295c4.142 0 7.5-3.358 7.5-7.5s-3.358-7.5-7.5-7.5h-62.005c-10.324 0-19.324-7.027-21.828-17.043l-6.99-27.957h161.823c20.711 0 37.5-16.789 37.5-37.5v-297.75c0-20.711-16.789-37.5-37.5-37.5zm-88.735 161.67-122.265 70.59v-141.18l122.265-70.59zm-259.53-141.18 122.265 70.59v141.18l-122.265-70.59zm129.765 57.6-122.265-70.59 53.632-30.965 122.265 70.589zm0-141.18 122.265 70.59-53.632 30.965-122.266-70.59zm-218.5 78.09h73.735v15h-73.735c-4.143 0-7.5 3.358-7.5 7.5v103.875c0 4.142 3.357 7.5 7.5 7.5s7.5-3.358 7.5-7.5v-96.375h66.235v121c0 2.68 1.43 5.155 3.75 6.495l137.265 79.25c1.16.67 2.455 1.005 3.75 1.005s2.59-.335 3.75-1.005l137.265-79.25c2.32-1.34 3.75-3.815 3.75-6.495v-121h66.235v222.75h-422v-96.375c0-4.142-3.357-7.5-7.5-7.5s-7.5 3.358-7.5 7.5v103.875c0 4.142 3.357 7.5 7.5 7.5h437c4.143 0 7.5-3.358 7.5-7.5v-237.75c0-4.142-3.357-7.5-7.5-7.5h-73.735v-15h73.735c12.406 0 22.5 10.093 22.5 22.5v260.25h-482v-260.25c0-12.407 10.094-22.5 22.5-22.5zm267.614 389.345c1.244 4.975 3.447 9.498 6.375 13.405h-110.978c2.927-3.907 5.13-8.43 6.374-13.405l7.9-31.595h82.431zm169.386-46.595h-437c-12.406 0-22.5-10.093-22.5-22.5v-22.5h482v22.5c0 12.407-10.094 22.5-22.5 22.5z"/><path d="m282.25 279.034c1.16.67 2.455 1.005 3.75 1.005s2.59-.335 3.75-1.005l77.265-44.609c2.32-1.34 3.75-3.815 3.75-6.495v-34.641c0-2.68-1.43-5.155-3.75-6.495s-5.18-1.34-7.5 0l-77.265 44.609c-2.32 1.34-3.75 3.815-3.75 6.495v34.641c0 2.679 1.43 5.155 3.75 6.495zm11.25-36.806 62.265-35.949v17.321l-62.265 35.948z"/><path d="m474.5 79.25h-79.226l-135.524-78.245c-2.32-1.34-5.18-1.34-7.5 0l-135.524 78.245h-79.226c-20.711 0-37.5 16.789-37.5 37.5v297.75c0 20.711 16.789 37.5 37.5 37.5h161.823l-6.99 27.957c-2.504 10.016-11.504 17.043-21.828 17.043h-62.005c-4.142 0-7.5 3.358-7.5 7.5s3.358 7.5 7.5 7.5h295c4.142 0 7.5-3.358 7.5-7.5s-3.358-7.5-7.5-7.5h-62.005c-10.324 0-19.324-7.027-21.828-17.043l-6.99-27.957h161.823c20.711 0 37.5-16.789 37.5-37.5v-297.75c0-20.711-16.789-37.5-37.5-37.5zm-88.735 161.67-122.265 70.59v-141.18l122.265-70.59zm-259.53-141.18 122.265 70.59v141.18l-122.265-70.59zm129.765 57.6-122.265-70.59 53.632-30.965 122.265 70.589zm0-141.18 122.265 70.59-53.632 30.965-122.266-70.59zm-218.5 78.09h73.735v15h-73.735c-4.143 0-7.5 3.358-7.5 7.5v103.875c0 4.142 3.357 7.5 7.5 7.5s7.5-3.358 7.5-7.5v-96.375h66.235v121c0 2.68 1.43 5.155 3.75 6.495l137.265 79.25c1.16.67 2.455 1.005 3.75 1.005s2.59-.335 3.75-1.005l137.265-79.25c2.32-1.34 3.75-3.815 3.75-6.495v-121h66.235v222.75h-422v-96.375c0-4.142-3.357-7.5-7.5-7.5s-7.5 3.358-7.5 7.5v103.875c0 4.142 3.357 7.5 7.5 7.5h437c4.143 0 7.5-3.358 7.5-7.5v-237.75c0-4.142-3.357-7.5-7.5-7.5h-73.735v-15h73.735c12.406 0 22.5 10.093 22.5 22.5v260.25h-482v-260.25c0-12.407 10.094-22.5 22.5-22.5zm267.614 389.345c1.244 4.975 3.447 9.498 6.375 13.405h-110.978c2.927-3.907 5.13-8.43 6.374-13.405l7.9-31.595h82.431zm169.386-46.595h-437c-12.406 0-22.5-10.093-22.5-22.5v-22.5h482v22.5c0 12.407-10.094 22.5-22.5 22.5z"/><path d="m282.25 279.034c1.16.67 2.455 1.005 3.75 1.005s2.59-.335 3.75-1.005l77.265-44.609c2.32-1.34 3.75-3.815 3.75-6.495v-34.641c0-2.68-1.43-5.155-3.75-6.495s-5.18-1.34-7.5 0l-77.265 44.609c-2.32 1.34-3.75 3.815-3.75 6.495v34.641c0 2.679 1.43 5.155 3.75 6.495zm11.25-36.806 62.265-35.949v17.321l-62.265 35.948z"/></g></svg>