<svg id="_x31__x2C_5" height="512" viewBox="0 0 24 24" width="512" xmlns="http://www.w3.org/2000/svg"><path d="m5.75 6.75 2 9.5h13.5l1.746-8.294c.131-.622-.343-1.206-.979-1.206z" fill="#cfd8dc"/><circle cx="17.5" cy="6.5" fill="#f44336" r="5.75"/><path d="m17.5 13c-3.584 0-6.5-2.916-6.5-6.5s2.916-6.5 6.5-6.5 6.5 2.916 6.5 6.5-2.916 6.5-6.5 6.5zm0-11.5c-2.757 0-5 2.243-5 5s2.243 5 5 5 5-2.243 5-5-2.243-5-5-5z"/><path d="m20.25 7.25h-5.5c-.414 0-.75-.336-.75-.75s.336-.75.75-.75h5.5c.414 0 .75.336.75.75s-.336.75-.75.75z"/><path d="m21.25 17h-13.5c-.354 0-.661-.249-.734-.596l-2-9.5c-.046-.221.009-.451.151-.627.143-.175.357-.277.583-.277h3.25c.414 0 .75.336.75.75s-.336.75-.75.75h-2.326l1.684 8h12.283l.428-2.036c.085-.406.485-.665.888-.58.405.085.665.483.58.888l-.554 2.631c-.072.348-.379.597-.733.597z"/><path d="m7.749 17c-.347 0-.659-.242-.733-.596l-2.505-11.901c-.121-.572-.633-.989-1.218-.992l-2.546-.011c-.414-.002-.749-.339-.747-.753s.337-.747.75-.747h.003l2.546.011c1.287.005 2.414.923 2.679 2.183l2.505 11.901c.085.405-.174.803-.58.888-.05.012-.103.017-.154.017z"/><path d="m21.25 20h-15c-1.241 0-2.25-1.009-2.25-2.25s1.009-2.25 2.25-2.25h1.5c.414 0 .75.336.75.75s-.336.75-.75.75h-1.5c-.414 0-.75.336-.75.75s.336.75.75.75h15c.414 0 .75.336.75.75s-.336.75-.75.75z"/><circle cx="10.5" cy="22.5" r="1.5"/><circle cx="18.5" cy="22.5" r="1.5"/></svg>